<?xml version="1.0" standalone="no"?>
<!DOCTYPE svg PUBLIC "-//W3C//DTD SVG 20010904//EN"
 "http://www.w3.org/TR/2001/REC-SVG-20010904/DTD/svg10.dtd">
<svg version="1.0" xmlns="http://www.w3.org/2000/svg"
 width="926.000000pt" height="512.000000pt" viewBox="0 0 926.000000 512.000000"
 preserveAspectRatio="xMidYMid meet">

<g transform="translate(0.000000,512.000000) scale(0.100000,-0.100000)"
fill="#000000" stroke="none">
<path d="M2300 4976 c-583 -76 -1071 -313 -1466 -712 -185 -186 -327 -387
-450 -634 -258 -519 -321 -1106 -179 -1670 222 -883 926 -1572 1815 -1776 471
-108 949 -75 1410 98 469 176 892 519 1175 953 358 547 479 1229 330 1860
-110 469 -340 874 -687 1210 -193 188 -359 305 -608 429 -239 118 -456 187
-737 231 -137 22 -470 28 -603 11z m335 -287 c83 -27 401 -155 445 -178 8 -4
24 -5 35 0 34 13 114 10 171 -7 64 -18 78 -34 32 -35 -18 0 -51 -6 -73 -13
l-40 -13 40 -8 c52 -10 203 -64 210 -75 3 -5 -10 -16 -30 -26 -19 -9 -35 -17
-35 -18 0 -1 38 -22 84 -45 112 -57 206 -150 206 -203 0 -14 -10 -8 -38 20
-37 37 -132 108 -132 98 0 -2 16 -28 36 -57 46 -68 144 -268 183 -377 17 -45
40 -92 51 -104 21 -23 64 -127 56 -136 -3 -3 -26 14 -52 38 l-46 43 -76 -6
c-63 -5 -80 -3 -101 12 -71 50 -185 92 -301 110 -178 29 -384 -5 -606 -101
l-94 -40 -93 40 c-306 134 -584 145 -807 32 -30 -16 -64 -35 -75 -43 -14 -11
-38 -14 -95 -10 l-75 5 -43 -43 c-23 -23 -45 -40 -48 -36 -9 9 16 78 45 122
14 22 39 74 55 115 75 196 154 357 199 407 11 13 18 25 15 28 -7 7 -106 -69
-140 -108 -33 -37 -36 -22 -8 33 30 60 97 117 182 158 42 20 77 40 77 44 1 4
-16 16 -36 27 l-38 19 30 12 c105 41 155 58 190 65 38 7 39 8 16 16 -14 6 -47
13 -75 18 l-51 8 40 19 c30 14 66 19 145 20 103 1 107 2 215 51 61 27 155 66
210 87 55 21 109 42 120 46 31 13 55 11 120 -11z m-880 -238 c-3 -6 -14 -11
-23 -11 -15 1 -15 2 2 15 21 16 32 13 21 -4z m1660 -1 c3 -5 2 -10 -4 -10 -5
0 -13 5 -16 10 -3 6 -2 10 4 10 5 0 13 -4 16 -10z m-1089 -866 c50 -10 92 -26
113 -41 36 -28 70 -92 71 -133 0 -41 -45 -124 -94 -175 l-45 -48 -70 5 c-45 3
-83 13 -108 27 -149 83 -196 101 -266 101 -90 0 -111 -11 -103 -56 13 -66 62
-154 109 -196 53 -46 151 -55 242 -22 17 6 15 2 -7 -23 -45 -47 -39 -56 32
-54 33 1 31 -1 -35 -35 -93 -48 -133 -79 -152 -120 -14 -29 -15 -37 -3 -60 14
-25 13 -27 -23 -57 -90 -71 -154 -207 -211 -442 l-14 -60 -1 60 c-1 81 23 236
50 313 12 35 37 84 56 109 19 25 33 47 31 48 -11 11 -85 -45 -99 -75 l-16 -34
-28 44 c-39 62 -71 137 -80 188 -5 33 -11 42 -26 42 -11 0 -31 11 -44 25 -33
32 -33 87 0 149 29 54 32 94 10 136 -9 18 -11 30 -5 30 14 0 86 -113 101 -158
6 -20 15 -41 20 -46 30 -32 -23 129 -81 249 -46 94 -55 131 -51 208 2 39 21
34 21 -6 0 -36 24 -77 44 -77 8 0 42 25 77 56 67 60 160 110 244 130 73 18
249 17 341 -2z m810 5 c80 -14 207 -77 277 -139 32 -27 62 -50 66 -50 21 0 43
31 48 68 8 59 23 42 23 -27 0 -49 -7 -72 -50 -157 -54 -107 -95 -229 -103
-309 -6 -54 -2 -46 29 64 14 50 72 159 100 190 11 12 13 -10 4 -34 -18 -46
-15 -90 8 -121 12 -16 25 -50 28 -76 8 -58 -11 -94 -58 -106 -28 -7 -34 -14
-39 -48 -10 -52 -41 -124 -80 -180 l-31 -45 -16 33 c-15 29 -90 84 -100 73 -3
-2 8 -19 23 -37 64 -76 104 -214 110 -383 5 -117 4 -116 -31 35 -40 168 -116
298 -219 374 -16 12 -18 17 -7 27 44 45 -20 127 -148 191 l-75 37 48 0 c55 1
59 12 20 54 -23 25 -24 29 -8 23 56 -21 131 -28 175 -16 62 16 140 97 169 174
32 85 29 104 -16 111 -21 3 -46 8 -55 9 -45 9 -145 -27 -292 -106 -26 -14 -65
-23 -113 -26 l-74 -5 -44 47 c-64 66 -98 138 -92 193 5 50 44 106 89 129 75
39 305 56 434 33z m-1648 -76 c-79 -156 -94 -266 -63 -478 35 -239 135 -546
285 -876 52 -114 53 -114 35 -144 -29 -49 -31 -151 -5 -236 26 -85 77 -190
132 -271 55 -82 55 -84 13 -92 -86 -16 -99 -88 -38 -206 32 -62 47 -79 117
-130 103 -75 254 -150 376 -187 83 -24 111 -28 225 -28 120 0 138 3 235 33
141 46 235 90 349 166 78 52 102 74 130 120 83 138 76 208 -24 232 -16 4 -33
8 -37 11 -4 2 17 36 45 76 139 194 197 401 139 502 l-23 40 56 118 c130 276
218 518 271 744 25 105 28 137 28 288 0 180 -8 220 -55 286 -12 17 -19 32 -17
34 2 3 50 -14 107 -36 57 -22 125 -46 152 -52 27 -6 49 -15 49 -18 0 -10 -58
-29 -88 -29 -19 0 -23 -4 -18 -17 16 -43 166 -280 214 -339 29 -35 50 -64 47
-64 -8 0 -76 37 -104 57 -28 20 -29 23 33 -72 91 -137 196 -383 196 -454 0
-24 -3 -23 -46 27 -25 28 -49 52 -54 52 -4 0 -3 -19 2 -42 11 -49 4 -260 -12
-328 -29 -126 -123 -380 -140 -380 -4 0 -3 19 2 43 11 46 7 152 -6 164 -5 5
-13 0 -20 -10 -6 -10 -57 -88 -114 -175 -204 -311 -372 -607 -372 -658 0 -12
-3 -15 -10 -8 -6 6 -14 40 -18 75 l-7 64 -106 -165 c-58 -91 -159 -250 -224
-353 -65 -103 -119 -186 -122 -184 -2 3 5 28 17 56 11 28 20 66 20 82 0 30 -2
29 -97 -60 -104 -99 -253 -205 -302 -216 -17 -4 -33 -11 -36 -16 -12 -18 -79
-8 -140 21 -83 40 -169 104 -275 206 -48 46 -90 84 -94 84 -11 0 -6 -36 14
-95 23 -67 20 -83 -7 -33 -39 74 -408 668 -415 668 -4 0 -5 -6 -2 -14 3 -8 0
-41 -7 -73 -11 -53 -13 -56 -22 -33 -57 146 -148 311 -349 633 -93 149 -134
205 -141 198 -13 -13 -15 -98 -4 -161 6 -34 5 -42 -4 -33 -29 29 -109 263
-133 392 -18 92 -21 286 -6 325 15 40 -4 31 -54 -26 -41 -47 -46 -50 -46 -28
0 74 92 295 189 455 23 37 40 70 37 72 -2 2 -24 -10 -50 -28 -48 -34 -75 -33
-38 2 26 24 125 170 172 254 18 33 41 75 52 93 23 41 23 42 -6 42 -29 0 -86
19 -86 30 0 4 17 10 38 14 20 3 84 26 142 50 112 46 124 50 118 39z m1097
-275 c10 -18 36 -56 57 -84 21 -28 38 -54 38 -57 0 -4 -11 -7 -24 -7 -25 0
-75 -34 -65 -44 3 -3 20 1 37 10 45 22 83 11 139 -43 27 -24 39 -41 28 -37
-41 15 -160 17 -172 2 -9 -11 2 -13 65 -14 54 0 89 -6 117 -20 l40 -19 -115
-5 c-76 -4 -125 -11 -145 -22 -27 -14 -31 -14 -54 0 -17 12 -57 18 -135 22
l-111 5 35 20 c26 15 54 20 112 20 60 0 74 3 66 13 -13 15 -121 16 -150 1 -38
-21 -33 3 10 41 53 47 91 57 134 36 17 -9 34 -13 37 -10 10 10 -40 44 -66 44
-14 0 -23 3 -21 8 8 19 113 172 118 172 3 0 14 -15 25 -32z m-564 -13 c34 -13
87 -30 120 -36 32 -6 59 -16 59 -21 0 -15 -80 -45 -137 -52 -38 -5 -61 -2 -82
8 -37 20 -82 73 -75 90 4 11 34 31 52 35 1 1 30 -10 63 -24z m1203 -7 c13 -21
-14 -62 -57 -89 -26 -16 -43 -18 -92 -13 -63 7 -145 36 -145 52 0 6 21 13 48
17 26 4 81 19 122 34 77 29 105 28 124 -1z m-1024 -97 c0 -14 -59 -47 -107
-61 -36 -11 -46 -11 -68 4 -35 23 -31 36 13 37 20 0 62 7 92 14 30 7 58 13 63
14 4 0 7 -3 7 -8z m795 -6 c33 -8 77 -15 98 -15 44 0 52 -25 12 -40 -34 -13
-90 0 -143 34 -64 40 -59 43 33 21z m-543 -254 c104 -19 108 -19 215 0 119 20
249 24 302 9 47 -13 81 -47 81 -82 0 -52 -26 -93 -104 -162 -42 -38 -75 -71
-72 -73 2 -2 43 23 92 56 48 34 91 61 96 61 4 0 8 -8 8 -18 0 -10 21 -38 46
-62 63 -61 126 -159 159 -250 26 -67 28 -88 29 -205 1 -144 -16 -213 -90 -387
-36 -84 -93 -182 -101 -174 -2 2 10 34 27 71 52 111 73 212 68 330 -3 89 -7
109 -35 166 -18 36 -42 74 -54 85 -17 15 -14 5 15 -53 51 -101 47 -115 -16
-58 -61 55 -186 117 -283 142 -56 14 -112 17 -280 17 -194 0 -216 -2 -290 -25
-96 -29 -193 -82 -254 -138 -25 -22 -47 -39 -49 -36 -2 2 11 36 28 75 37 80
35 104 -4 38 -83 -142 -83 -317 0 -518 47 -115 48 -118 29 -95 -41 50 -111
207 -153 345 -22 72 -26 104 -26 210 0 108 4 136 27 205 30 92 109 218 167
268 22 19 40 41 40 50 0 10 2 17 5 17 2 0 42 -27 88 -60 47 -33 88 -60 92 -60
5 0 -30 37 -77 83 -75 71 -87 88 -93 126 -9 53 14 90 66 108 51 18 183 15 301
-6z m-60 -696 c8 -19 8 -38 -3 -77 -14 -52 -14 -53 -56 -56 -58 -4 -97 21 -88
57 9 39 53 101 78 110 28 11 55 -3 69 -34z m129 16 c26 -27 29 -36 29 -95 0
-88 -16 -104 -89 -90 -71 14 -74 130 -6 198 23 22 32 20 66 -13z m151 4 c25
-24 48 -84 48 -123 0 -32 -32 -61 -76 -68 -64 -10 -82 19 -75 121 2 40 19 71
45 83 30 15 31 15 58 -13z m-418 6 c7 -11 -147 -394 -160 -398 -21 -7 -37 54
-42 149 -2 54 -1 113 2 132 8 41 58 83 131 108 59 20 62 21 69 9z m579 -18
c31 -33 58 -95 49 -110 -21 -31 -109 -45 -130 -20 -6 7 -16 34 -22 60 -11 40
-10 51 4 72 23 34 64 33 99 -2z m153 -9 c89 -42 96 -55 97 -186 1 -85 -3 -122
-15 -150 -29 -64 -23 -72 -129 185 -39 92 -67 172 -64 177 8 13 48 4 111 -26z
m-773 -516 c4 -35 14 -132 22 -217 9 -84 14 -156 11 -158 -10 -11 -74 19 -102
48 l-29 30 22 127 c24 139 49 232 62 232 4 0 11 -28 14 -62z m742 10 c9 -29
25 -110 38 -180 l21 -127 -24 -27 c-24 -26 -77 -54 -101 -54 -9 0 -10 21 -5
78 14 168 39 362 47 362 5 0 15 -24 24 -52z m266 -56 c-12 -37 -37 -103 -57
-148 l-35 -80 31 -58 c16 -32 30 -67 30 -78 0 -68 -79 -138 -200 -178 -65 -22
-212 -51 -219 -44 -2 2 2 11 10 20 22 27 -11 44 -63 33 -49 -12 -71 -23 -120
-61 l-37 -29 -51 37 c-54 39 -131 67 -156 57 -12 -4 -14 -14 -10 -35 5 -25 3
-28 -17 -24 -142 29 -182 41 -237 67 -98 46 -140 94 -140 159 0 31 21 82 45
110 11 13 9 27 -17 85 -36 85 -78 211 -78 234 1 9 12 -6 27 -34 42 -83 102
-133 145 -122 18 5 19 2 12 -31 -23 -102 2 -177 75 -225 178 -118 667 -113
826 9 53 40 78 96 72 158 -3 28 -8 60 -12 71 -5 17 -1 20 27 21 49 1 93 38
130 111 40 76 47 67 19 -25z m-837 -193 l39 -11 -6 -57 c-10 -88 -21 -111 -56
-111 -42 0 -78 19 -85 44 -8 28 -8 110 0 130 7 19 51 21 108 5z m461 1 c4 -6
7 -40 7 -76 2 -80 -12 -97 -78 -98 -53 -1 -55 2 -69 104 -7 50 -7 50 27 65 39
17 104 20 113 5z m-159 -60 c17 -48 17 -125 0 -139 -7 -6 -33 -11 -57 -11 -24
0 -57 1 -74 1 -16 0 -48 0 -69 -1 -58 0 -69 14 -63 80 3 30 10 67 16 82 l10
27 112 -2 112 -2 13 -35z"/>
<path d="M2065 4033 c15 -42 27 -117 21 -145 -5 -26 -3 -29 12 -23 9 4 54 9
99 12 114 8 161 -7 233 -74 32 -29 60 -53 63 -53 4 0 18 20 33 45 14 25 29 45
34 45 4 0 18 -20 31 -45 13 -25 29 -45 34 -45 6 0 29 18 50 41 67 68 105 83
215 84 52 0 109 -3 126 -7 l31 -7 5 77 c3 42 9 85 13 94 5 12 -14 4 -55 -24
-65 -43 -268 -119 -324 -120 -24 -1 -40 9 -78 51 l-48 53 -54 -57 c-60 -63
-49 -62 -184 -19 -91 30 -191 79 -225 110 -31 28 -42 31 -32 7z"/>
<path d="M2191 2796 c-29 -35 46 -139 123 -171 33 -14 68 -18 131 -15 l40 1
-51 23 c-59 27 -71 41 -53 62 13 16 9 21 -72 74 -58 38 -100 47 -118 26z"/>
<path d="M2870 2803 c-8 -3 -44 -26 -79 -51 -57 -40 -62 -47 -47 -57 15 -12
15 -15 -9 -33 -15 -12 -43 -27 -63 -33 l-37 -13 38 -7 c93 -16 201 33 251 115
23 37 27 51 19 64 -10 18 -47 25 -73 15z"/>
<path d="M6265 3956 c-56 -18 -96 -40 -197 -108 -302 -202 -565 -509 -545
-636 14 -82 83 -92 208 -30 38 19 69 33 69 32 0 -1 -43 -51 -96 -111 -107
-121 -196 -248 -192 -272 2 -9 13 -17 25 -19 17 -3 32 11 70 64 85 120 198
257 302 366 55 59 101 114 101 122 0 32 -25 25 -113 -32 -203 -133 -297 -157
-297 -73 0 117 394 507 636 630 96 48 133 37 99 -30 -22 -42 -136 -153 -209
-204 -96 -67 -110 -80 -103 -99 6 -14 14 -17 34 -11 80 20 271 192 316 284 32
66 34 94 7 121 -23 23 -57 24 -115 6z"/>
<path d="M8585 3929 c-101 -64 -368 -282 -495 -405 -59 -56 -73 -65 -150 -88
-97 -29 -130 -49 -130 -77 0 -23 16 -24 63 -4 20 8 42 15 48 15 6 0 -39 -53
-101 -117 -144 -150 -171 -193 -122 -193 10 0 95 80 189 178 l171 178 128 32
c70 18 129 30 131 28 2 -2 -19 -43 -48 -92 -70 -122 -114 -211 -130 -262 -11
-37 -10 -45 3 -59 23 -22 35 -10 74 74 18 41 68 136 110 210 77 137 93 153
149 153 23 0 45 25 45 49 0 6 -16 11 -36 11 l-36 0 23 38 c12 20 64 101 116
179 52 79 93 151 91 160 -5 29 -40 26 -93 -8z m-104 -194 c-38 -58 -80 -122
-92 -144 -21 -38 -25 -40 -118 -61 -53 -13 -103 -25 -111 -28 -26 -9 50 65
165 163 97 81 216 175 222 175 2 0 -28 -47 -66 -105z"/>
<path d="M7521 3665 c-55 -52 -108 -95 -118 -95 -10 0 -35 -5 -56 -11 -31 -8
-38 -14 -35 -32 2 -15 10 -22 24 -21 18 0 10 -14 -47 -85 -75 -93 -139 -208
-139 -250 0 -91 110 -57 252 78 65 62 80 82 71 92 -9 9 -24 1 -70 -41 -112
-103 -173 -135 -173 -92 0 40 122 212 212 299 39 38 50 42 123 54 89 14 105
22 105 52 0 18 -4 19 -62 13 l-63 -6 59 59 c54 55 64 81 31 81 -7 0 -59 -43
-114 -95z"/>
<path d="M8566 3458 c-176 -188 -484 -565 -545 -670 -22 -36 -15 -67 11 -52 8
5 52 59 98 119 46 61 114 147 152 193 l69 82 40 -6 c64 -11 155 41 260 146 87
88 133 161 127 202 -2 19 -9 23 -38 23 -19 -1 -46 -4 -59 -9 -24 -8 -24 -7 7
34 31 43 33 60 7 60 -7 0 -65 -55 -129 -122z m134 -32 c0 -22 -83 -127 -137
-172 -74 -63 -141 -91 -157 -66 -8 13 164 192 213 224 49 30 81 36 81 14z"/>
<path d="M7053 3514 c-70 -34 -180 -138 -239 -224 -39 -58 -48 -78 -48 -116
-2 -85 52 -85 142 -1 33 31 52 44 48 32 -4 -11 -10 -34 -13 -51 -9 -52 45 -85
81 -48 21 20 20 26 -5 47 -16 14 -19 25 -14 45 8 33 59 112 114 176 22 26 41
56 41 66 0 10 5 22 10 25 6 3 10 19 10 35 0 48 -49 53 -127 14z m54 -59 c3 -9
-1 -21 -10 -28 -8 -7 -47 -50 -86 -97 -74 -88 -144 -150 -167 -150 -43 0 7 98
98 192 84 87 150 120 165 83z"/>
<path d="M6394 3492 c-28 -16 -88 -54 -132 -85 -45 -31 -82 -52 -82 -48 0 4
27 31 60 60 62 54 75 81 40 81 -44 0 -277 -258 -336 -371 -13 -27 -13 -30 3
-36 13 -5 36 14 92 75 76 80 217 202 235 202 6 0 5 -5 -2 -12 -38 -38 11 -69
78 -49 50 15 134 71 138 93 3 15 -7 13 -63 -13 -102 -48 -107 -22 -12 55 26
21 47 47 47 57 0 25 -5 24 -66 -9z"/>
<path d="M6646 3488 c-87 -48 -199 -157 -235 -230 -36 -72 -38 -91 -11 -118
41 -41 145 -15 272 69 86 57 126 97 112 111 -7 7 -32 -6 -78 -40 -76 -58 -159
-100 -197 -100 -48 0 -65 52 -22 66 64 21 153 76 203 126 123 123 97 192 -44
116z m45 -55 c-9 -17 -48 -56 -96 -95 -12 -10 -38 -24 -58 -33 -36 -15 -38
-15 -28 2 5 10 29 37 53 60 70 67 153 109 129 66z"/>
<path d="M8956 3488 c-87 -48 -199 -157 -235 -230 -36 -72 -38 -91 -11 -118
41 -41 145 -15 272 69 86 57 126 97 112 111 -7 7 -32 -6 -78 -40 -76 -58 -159
-100 -197 -100 -48 0 -65 52 -22 66 64 21 153 76 203 126 123 123 97 192 -44
116z m45 -55 c-9 -17 -48 -56 -96 -95 -12 -10 -38 -24 -58 -33 -36 -15 -38
-15 -28 2 5 10 29 37 53 60 70 67 153 109 129 66z"/>
<path d="M6579 2346 c-142 -122 -295 -289 -520 -566 -70 -85 -138 -166 -153
-179 l-26 -24 16 54 c29 97 108 240 200 362 49 64 55 87 22 87 -17 0 -92 -70
-271 -252 -161 -164 -242 -241 -231 -218 39 79 166 267 314 465 87 116 165
224 174 242 20 39 21 63 2 63 -29 0 -48 -14 -78 -59 -18 -25 -88 -122 -157
-216 -174 -237 -282 -400 -336 -506 -45 -90 -55 -132 -34 -144 28 -18 72 16
231 178 155 158 166 168 139 117 -40 -73 -81 -184 -81 -218 0 -59 50 -69 105
-21 20 17 124 138 232 268 121 146 266 306 380 419 100 100 183 189 183 197 0
30 -39 13 -111 -49z"/>
<path d="M7175 2332 c-157 -101 -547 -536 -625 -696 -37 -78 -1 -107 81 -65
47 23 199 167 199 187 0 27 -36 9 -84 -43 -110 -119 -166 -126 -88 -12 28 41
73 82 181 163 155 115 365 315 420 399 64 100 20 135 -84 67z m25 -57 c0 -20
-100 -135 -191 -219 -77 -72 -229 -191 -229 -181 0 14 154 185 252 281 129
127 168 154 168 119z"/>
<path d="M7465 2332 c-157 -101 -547 -536 -625 -696 -37 -78 -1 -107 81 -65
47 23 199 167 199 187 0 27 -36 9 -84 -43 -110 -119 -166 -126 -88 -12 28 41
73 82 181 163 155 115 365 315 420 399 64 100 20 135 -84 67z m25 -57 c0 -20
-100 -135 -191 -219 -77 -72 -229 -191 -229 -181 0 14 154 185 252 281 129
127 168 154 168 119z"/>
<path d="M7911 2095 c-55 -52 -108 -95 -118 -95 -10 0 -35 -5 -56 -11 -31 -8
-38 -14 -35 -32 2 -15 10 -22 24 -21 18 0 10 -14 -47 -85 -75 -93 -139 -208
-139 -250 0 -91 110 -57 252 78 65 62 80 82 71 92 -9 9 -24 1 -70 -41 -112
-103 -173 -135 -173 -92 0 40 122 212 212 299 39 38 50 42 123 54 89 14 105
22 105 52 0 18 -4 19 -62 13 l-63 -6 59 59 c54 55 64 81 31 81 -7 0 -59 -43
-114 -95z"/>
<path d="M6493 1944 c-70 -34 -180 -138 -239 -224 -39 -58 -48 -78 -48 -116
-2 -85 52 -85 142 -1 33 31 52 44 48 32 -4 -11 -10 -34 -13 -51 -9 -52 45 -85
81 -48 21 20 20 26 -5 47 -16 14 -19 25 -14 45 8 33 59 112 114 176 22 26 41
56 41 66 0 10 5 22 10 25 6 3 10 19 10 35 0 48 -49 53 -127 14z m54 -59 c3 -9
-1 -21 -10 -28 -8 -7 -47 -50 -86 -97 -74 -88 -144 -150 -167 -150 -43 0 7 98
98 192 84 87 150 120 165 83z"/>
<path d="M7376 1918 c-87 -48 -199 -157 -235 -230 -36 -72 -38 -91 -11 -118
41 -41 145 -15 272 69 86 57 126 97 112 111 -7 7 -32 -6 -78 -40 -76 -58 -159
-100 -197 -100 -48 0 -65 52 -22 66 64 21 153 76 203 126 123 123 97 192 -44
116z m45 -55 c-9 -17 -48 -56 -96 -95 -12 -10 -38 -24 -58 -33 -36 -15 -38
-15 -28 2 5 10 29 37 53 60 70 67 153 109 129 66z"/>
</g>
</svg>
