<?xml version="1.0" standalone="no"?>
<!DOCTYPE svg PUBLIC "-//W3C//DTD SVG 20010904//EN"
 "http://www.w3.org/TR/2001/REC-SVG-20010904/DTD/svg10.dtd">
<svg version="1.0" xmlns="http://www.w3.org/2000/svg"
 width="862.000000pt" height="447.000000pt" viewBox="0 0 862.000000 447.000000"
 preserveAspectRatio="xMidYMid meet">

<g transform="translate(0.000000,447.000000) scale(0.100000,-0.100000)"
fill="#000000" stroke="none">
<path d="M2060 4460 c-195 -14 -441 -71 -632 -146 -667 -261 -1181 -844 -1348
-1526 -53 -218 -65 -314 -64 -548 0 -237 13 -351 64 -550 262 -1038 1242
-1747 2306 -1671 560 40 1030 256 1430 655 362 363 581 828 635 1345 24 233
-1 561 -60 783 -142 541 -493 1021 -963 1317 -278 175 -608 294 -918 330 -133
15 -324 20 -450 11z m-152 -2025 c34 -16 62 -32 62 -37 0 -4 -23 -8 -51 -8
-43 0 -55 5 -80 29 -33 33 -40 67 -11 53 9 -5 45 -22 80 -37z m672 24 c0 -6
-13 -24 -29 -40 -26 -25 -37 -29 -85 -29 -31 0 -56 3 -56 8 0 9 129 70 153 71
9 1 17 -4 17 -10z m-551 -570 c18 1 39 -4 47 -10 11 -9 21 -9 37 -1 28 13 148
13 165 0 9 -8 20 -7 37 2 13 7 34 10 48 6 13 -3 45 1 71 10 44 15 48 15 66 -1
32 -29 43 -80 35 -169 -4 -44 -9 -85 -12 -89 -3 -5 -25 27 -50 72 -24 45 -47
81 -50 81 -2 0 -16 -9 -30 -20 -23 -18 -27 -18 -56 -4 -24 13 -37 14 -67 5
-48 -14 -103 -14 -152 1 -34 10 -44 9 -69 -6 -30 -18 -31 -17 -53 3 -12 12
-25 21 -29 21 -3 0 -18 -21 -33 -47 -15 -27 -37 -64 -48 -83 l-21 -35 -6 30
c-11 51 -10 170 2 204 14 40 41 51 94 38 22 -5 55 -9 74 -8z m-84 -629 c21
-17 50 -33 64 -36 14 -3 42 -9 62 -14 47 -13 221 -13 251 0 13 5 42 14 65 20
23 6 55 22 72 35 34 29 42 19 30 -35 -11 -47 -44 -73 -83 -66 -18 4 -35 1 -45
-8 -33 -28 -265 -35 -320 -9 -18 9 -50 17 -69 17 -29 1 -40 7 -59 35 -22 33
-32 91 -14 91 4 0 25 -14 46 -30z"/>
<path d="M5759 2776 c-142 -122 -295 -289 -520 -566 -70 -85 -138 -166 -153
-179 l-26 -24 16 54 c29 97 108 240 200 362 49 64 55 87 22 87 -17 0 -92 -70
-271 -252 -161 -164 -242 -241 -231 -218 39 79 166 267 314 465 87 116 165
224 174 242 20 39 21 63 2 63 -29 0 -48 -14 -78 -59 -18 -25 -88 -122 -157
-216 -174 -237 -282 -400 -336 -506 -45 -90 -55 -132 -34 -144 28 -18 72 16
231 178 155 158 166 168 139 117 -40 -73 -81 -184 -81 -218 0 -59 50 -69 105
-21 20 17 124 138 232 268 121 146 266 306 380 419 100 100 183 189 183 197 0
30 -39 13 -111 -49z"/>
<path d="M7615 2814 c-186 -25 -223 -40 -211 -87 4 -19 -13 -41 -105 -132
-199 -197 -442 -487 -487 -583 -14 -29 -14 -34 0 -48 14 -14 25 -12 122 21 65
22 143 41 199 47 111 12 137 21 137 48 0 41 -107 39 -265 -5 -49 -13 -91 -23
-92 -21 -7 7 106 149 190 240 84 91 86 92 148 104 35 6 101 14 147 18 86 7
116 22 110 53 -4 22 -48 25 -154 8 -49 -8 -90 -14 -91 -13 -1 1 49 56 112 123
63 67 115 126 115 131 0 13 103 31 221 38 123 7 136 10 150 35 9 17 8 23 -2
30 -20 12 -127 9 -244 -7z"/>
<path d="M8225 2818 c-179 -20 -452 -85 -475 -113 -19 -22 -4 -49 23 -41 77
21 251 57 262 54 8 -2 -52 -73 -136 -163 -163 -173 -391 -442 -452 -532 -42
-62 -47 -108 -13 -108 14 0 44 34 95 106 106 149 262 335 445 532 86 92 154
172 151 176 -8 14 35 21 175 27 74 3 151 10 171 15 39 10 58 37 37 51 -17 10
-179 8 -283 -4z"/>
<path d="M6205 2789 c-101 -64 -368 -282 -495 -405 -59 -56 -73 -65 -150 -88
-97 -29 -130 -49 -130 -77 0 -23 16 -24 63 -4 20 8 42 15 48 15 6 0 -39 -53
-101 -117 -144 -150 -171 -193 -122 -193 10 0 95 80 189 178 l171 178 128 32
c70 18 129 30 131 28 2 -2 -19 -43 -48 -92 -70 -122 -114 -211 -130 -262 -11
-37 -10 -45 3 -59 23 -22 35 -10 74 74 18 41 68 136 110 210 77 137 93 153
149 153 23 0 45 25 45 49 0 6 -16 11 -36 11 l-36 0 23 38 c12 20 64 101 116
179 52 79 93 151 91 160 -5 29 -40 26 -93 -8z m-104 -194 c-38 -58 -80 -122
-92 -144 -21 -38 -25 -40 -118 -61 -53 -13 -103 -25 -111 -28 -26 -9 50 65
165 163 97 81 216 175 222 175 2 0 -28 -47 -66 -105z"/>
<path d="M6638 2738 c-101 -83 -452 -433 -555 -553 -110 -128 -147 -185 -138
-215 9 -28 36 -26 135 11 46 16 113 33 149 36 81 7 103 17 99 46 -3 20 -8 22
-63 20 -33 -1 -94 -11 -135 -21 -41 -11 -76 -19 -78 -18 -1 2 20 32 47 68 87
115 252 288 444 467 117 108 187 180 187 192 0 31 -25 22 -92 -33z"/>
<path d="M7048 2738 c-101 -83 -452 -433 -555 -553 -110 -128 -147 -185 -138
-215 9 -28 36 -26 135 11 46 16 113 33 149 36 81 7 103 17 99 46 -3 20 -8 22
-63 20 -33 -1 -94 -11 -135 -21 -41 -11 -76 -19 -78 -18 -1 2 20 32 47 68 87
115 252 288 444 467 117 108 187 180 187 192 0 31 -25 22 -92 -33z"/>
</g>
</svg>
